<svg width="800" height="800" viewBox="0 0 800 800" fill="none" xmlns="http://www.w3.org/2000/svg">
<g filter="url(#filter0_d_5112_782)">
<path d="M469.236 70C482.39 70 493.053 80.663 493.053 93.8164V147.147L515.338 147.147L515.428 147.147L515.554 147.147L515.826 147.149C516.016 147.151 516.225 147.153 516.451 147.157C516.904 147.164 517.428 147.176 518.02 147.195C519.201 147.234 520.66 147.304 522.361 147.424C525.741 147.663 530.185 148.114 535.363 148.969C545.001 150.562 558.556 153.78 572.918 160.603L730.42 226.671L732.101 227.505C771.787 247.177 789.993 286.296 789.993 322.036V585.865C789.993 586.054 789.994 586.254 789.994 586.463L789.996 586.913C790.038 597.096 790.161 626.996 764.231 652.823L714.76 702.095L714.641 702.215C704.601 712.275 692.123 720.652 676.284 724.879C664.39 728.054 652.827 727.966 648.637 727.934L648.619 727.933C648.409 727.932 648.219 727.93 648.047 727.93L647.752 727.929H480.721C474.094 727.929 468.721 722.556 468.721 715.929V668.388H328.586C328.586 672.629 328.572 698.052 328.561 715.944C328.557 722.569 323.186 727.929 316.561 727.929H152.246C152.104 727.929 151.942 727.929 151.762 727.931L151.362 727.934C147.172 727.966 135.609 728.054 123.714 724.879C107.873 720.651 95.3938 712.272 85.3529 702.21L85.2386 702.095L35.67 652.725L35.5723 652.627C9.86242 626.78 9.9667 597.185 10.003 586.874C10.0043 586.513 10.0055 586.177 10.0055 585.865V322.036C10.0055 286.43 28.1662 247.199 67.8977 227.505L69.579 226.671L227.081 160.603C241.443 153.78 254.998 150.562 264.636 148.969C269.814 148.114 274.258 147.663 277.638 147.424C279.338 147.304 280.798 147.234 281.979 147.195C282.571 147.176 283.095 147.164 283.547 147.157L283.917 147.152L284.173 147.149L284.445 147.147L284.571 147.147L284.66 147.147L306.942 147.147V93.8164C306.942 80.663 317.605 70 330.758 70H469.236Z" fill="#191A1A"/>
<path d="M366.483 129.54H433.512V206.687H366.483V129.54Z" fill="#FBCB4A"/>
<path d="M269.01 602.429H144.008C135.768 602.429 135.768 594.146 135.768 594.146V280.85C135.768 280.85 135.768 272.644 144.008 272.644H366.483L366.483 206.687H284.69C284.69 206.687 268.134 206.687 251.579 214.893L94.3414 280.85C77.7861 289.057 69.5469 305.623 69.5469 322.035V585.863C69.5469 594.147 69.5469 602.353 77.7861 610.636L127.452 660.104C135.691 668.387 141.928 668.387 152.247 668.387H269.029C269.037 648.34 269.046 624.655 269.054 602.887H528.013V668.387H647.753C658.071 668.387 664.308 668.387 672.547 660.104L722.213 610.636C730.453 602.429 730.453 594.147 730.453 585.863V322.035C730.453 305.546 722.213 289.057 705.658 280.85L548.421 214.893C531.865 206.687 515.31 206.687 515.31 206.687H433.512L433.512 272.644H656.069C664.308 272.644 664.308 280.85 664.308 280.85V594.146C664.308 594.146 664.308 602.429 656.069 602.429H528.262V537.396H269.075C269.075 543.707 269.017 596.912 269.01 602.429Z" fill="#FBCB4A"/>
<path d="M269.009 436.172H528.262V370.681H269.075C269.075 377.373 269.009 436.788 269.009 436.172Z" fill="#FBCB4A"/>
</g>
<defs>
<filter id="filter0_d_5112_782" x="-4" y="0" width="808" height="808" filterUnits="userSpaceOnUse" color-interpolation-filters="sRGB">
<feFlood flood-opacity="0" result="BackgroundImageFix"/>
<feColorMatrix in="SourceAlpha" type="matrix" values="0 0 0 0 0 0 0 0 0 0 0 0 0 0 0 0 0 0 127 0" result="hardAlpha"/>
<feOffset dy="4"/>
<feGaussianBlur stdDeviation="2"/>
<feComposite in2="hardAlpha" operator="out"/>
<feColorMatrix type="matrix" values="0 0 0 0 0 0 0 0 0 0 0 0 0 0 0 0 0 0 0.25 0"/>
<feBlend mode="normal" in2="BackgroundImageFix" result="effect1_dropShadow_5112_782"/>
<feBlend mode="normal" in="SourceGraphic" in2="effect1_dropShadow_5112_782" result="shape"/>
</filter>
</defs>
</svg>
